HIERARCHY
ROOT newVegas:Hips
{
	OFFSET 0.000000 96.479958 0.000000
	CHANNELS 6 Xposition Yposition Zposition Xrotation Yrotation Zrotation
	JOINT newVegas:Pelvis
	{
		OFFSET 0.000000 0.000000 0.000000
		CHANNELS 3 Xrotation Yrotation Zrotation
		JOINT newVegas:LeftUpLeg
		{
			OFFSET 18.735201 -5.666702 -4.541200
			CHANNELS 3 Xrotation Yrotation Zrotation
			JOINT newVegas:LeftLeg
			{
				OFFSET -0.021200 -31.938179 0.493100
				CHANNELS 3 Xrotation Yrotation Zrotation
				JOINT newVegas:LeftFoot
				{
					OFFSET 0.021200 -31.938179 -4.336299
					CHANNELS 3 Xrotation Yrotation Zrotation
					JOINT newVegas:LeftToeBase
					{
						OFFSET 0.943001 -26.722000 15.023500
						CHANNELS 3 Xrotation Yrotation Zrotation
						End Site
						{
							OFFSET 0.000000 30.670183 0.000000
						}
					}
				}
				JOINT newVegas:Left_PantLeg
				{
					OFFSET 0.663870 -9.044666 -1.108900
					CHANNELS 3 Xrotation Yrotation Zrotation
					End Site
					{
						OFFSET 1.415995 20.635357 0.000000
					}
				}
			}
		}
		JOINT newVegas:RightUpLeg
		{
			OFFSET -18.735201 -5.666702 -4.541200
			CHANNELS 3 Xrotation Yrotation Zrotation
			JOINT newVegas:RightLeg
			{
				OFFSET 0.018946 -31.938133 0.493100
				CHANNELS 3 Xrotation Yrotation Zrotation
				JOINT newVegas:RightFoot
				{
					OFFSET -0.018946 -31.938126 -4.336299
					CHANNELS 3 Xrotation Yrotation Zrotation
					JOINT newVegas:RightToeBase
					{
						OFFSET -0.943001 -26.722004 15.023500
						CHANNELS 3 Xrotation Yrotation Zrotation
						End Site
						{
							OFFSET 0.000000 30.670187 0.000000
						}
					}
				}
				JOINT newVegas:Right_PantLeg
				{
					OFFSET -0.661674 -9.044716 -1.108900
					CHANNELS 3 Xrotation Yrotation Zrotation
					End Site
					{
						OFFSET -1.415958 20.635269 0.000000
					}
				}
			}
		}
	}
	JOINT newVegas:Spine
	{
		OFFSET 0.000000 10.199997 -0.299500
		CHANNELS 3 Xrotation Yrotation Zrotation
		JOINT newVegas:Spine1
		{
			OFFSET 0.000000 11.900002 -1.516600
			CHANNELS 3 Xrotation Yrotation Zrotation
			JOINT newVegas:Spine2
			{
				OFFSET 0.000000 13.600006 -2.842500
				CHANNELS 3 Xrotation Yrotation Zrotation
				JOINT newVegas:Neck
				{
					OFFSET 0.000000 9.624100 -2.890100
					CHANNELS 3 Xrotation Yrotation Zrotation
					JOINT newVegas:Head
					{
						OFFSET 0.000000 14.068802 -1.351900
						CHANNELS 3 Xrotation Yrotation Zrotation
						JOINT newVegas:Hair_Back
						{
							OFFSET 0.000000 3.231903 -17.524799
							CHANNELS 3 Xrotation Yrotation Zrotation
							End Site
							{
								OFFSET 0.000000 19.849884 0.000000
							}
						}
						JOINT newVegas:Hair_Front
						{
							OFFSET 0.000000 31.260406 4.573800
							CHANNELS 3 Xrotation Yrotation Zrotation
							JOINT newVegas:Hair_Front1
							{
								OFFSET 0.000000 2.284103 11.993300
								CHANNELS 3 Xrotation Yrotation Zrotation
								JOINT newVegas:Hair_Front2
								{
									OFFSET 0.000000 2.284103 11.993300
									CHANNELS 3 Xrotation Yrotation Zrotation
									End Site
									{
										OFFSET 0.000000 12.208862 0.000000
									}
								}
							}
						}
						JOINT newVegas:Jowel
						{
							OFFSET 0.000000 -7.458206 6.864100
							CHANNELS 3 Xrotation Yrotation Zrotation
							End Site
							{
								OFFSET 0.000000 19.849884 0.000000
							}
						}
					}
				}
				JOINT newVegas:LeftShoulder
				{
					OFFSET 15.263000 10.923401 -0.547700
					CHANNELS 3 Xrotation Yrotation Zrotation
					JOINT newVegas:LeftArm
					{
						OFFSET 25.438599 -2.830597 -13.032500
						CHANNELS 3 Xrotation Yrotation Zrotation
						JOINT newVegas:LeftForeArm
						{
							OFFSET 29.960503 0.000000 0.000000
							CHANNELS 3 Xrotation Yrotation Zrotation
							JOINT newVegas:LeftHand
							{
								OFFSET 27.849251 0.000000 0.000000
								CHANNELS 3 Xrotation Yrotation Zrotation
								JOINT newVegas:LeftHandThumb1
								{
									OFFSET 4.487587 -3.305161 6.305391
									CHANNELS 3 Xrotation Yrotation Zrotation
									JOINT newVegas:LeftHandThumb2
									{
										OFFSET 5.480453 -3.164139 3.164143
										CHANNELS 3 Xrotation Yrotation Zrotation
										JOINT newVegas:LeftHandThumb3
										{
											OFFSET 5.159721 -2.978973 2.978967
											CHANNELS 3 Xrotation Yrotation Zrotation
											End Site
											{
												OFFSET 2.494507 5.926697 1.738678
											}
										}
									}
								}
								JOINT newVegas:LeftHandIndex1
								{
									OFFSET 18.578728 -0.527832 5.208049
									CHANNELS 3 Xrotation Yrotation Zrotation
									JOINT newVegas:LeftHandIndex2
									{
										OFFSET 3.192009 0.000000 0.000000
										CHANNELS 3 Xrotation Yrotation Zrotation
										JOINT newVegas:LeftHandIndex3
										{
											OFFSET 3.835129 0.000000 0.000000
											CHANNELS 3 Xrotation Yrotation Zrotation
											End Site
											{
												OFFSET -0.034599 3.816971 0.371180
											}
										}
									}
								}
								JOINT newVegas:LeftHandMiddle1
								{
									OFFSET 18.476105 0.000000 0.000000
									CHANNELS 3 Xrotation Yrotation Zrotation
									JOINT newVegas:LeftHandMiddle2
									{
										OFFSET 3.324875 0.000000 0.000000
										CHANNELS 3 Xrotation Yrotation Zrotation
										JOINT newVegas:LeftHandMiddle3
										{
											OFFSET 4.596550 0.000000 0.000000
											CHANNELS 3 Xrotation Yrotation Zrotation
											End Site
											{
												OFFSET 0.057701 4.578827 0.399218
											}
										}
									}
								}
								JOINT newVegas:LeftHandRing1
								{
									OFFSET 17.732719 0.121887 -4.201567
									CHANNELS 3 Xrotation Yrotation Zrotation
									JOINT newVegas:LeftHandRing2
									{
										OFFSET 2.733170 0.000000 0.000000
										CHANNELS 3 Xrotation Yrotation Zrotation
										JOINT newVegas:LeftHandRing3
										{
											OFFSET 3.178268 0.000000 0.000000
											CHANNELS 3 Xrotation Yrotation Zrotation
											End Site
											{
												OFFSET 0.119102 3.170624 0.185394
											}
										}
									}
								}
								JOINT newVegas:LeftHandPinky1
								{
									OFFSET 15.989624 -0.606689 -7.535461
									CHANNELS 3 Xrotation Yrotation Zrotation
									JOINT newVegas:LeftHandPinky2
									{
										OFFSET 2.538986 0.000000 0.000000
										CHANNELS 3 Xrotation Yrotation Zrotation
										JOINT newVegas:LeftHandPinky3
										{
											OFFSET 2.593102 0.000000 0.000000
											CHANNELS 3 Xrotation Yrotation Zrotation
											End Site
											{
												OFFSET -0.150902 2.584198 0.152708
											}
										}
									}
								}
							}
							JOINT newVegas:Left_Sleeve
							{
								OFFSET 0.267448 -0.649796 0.577675
								CHANNELS 3 Xrotation Yrotation Zrotation
								End Site
								{
									OFFSET 0.000000 15.991241 0.000000
								}
							}
							JOINT newVegas:Left_CapeC
							{
								OFFSET 15.715958 -8.608795 -6.935905
								CHANNELS 3 Xrotation Yrotation Zrotation
								JOINT newVegas:Left_CapeC1
								{
									OFFSET 0.000000 -8.688499 0.000000
									CHANNELS 3 Xrotation Yrotation Zrotation
									End Site
									{
										OFFSET 0.000000 8.688499 0.000000
									}
								}
							}
						}
						JOINT newVegas:Left_CapeB
						{
							OFFSET 26.118385 -8.608795 -7.079235
							CHANNELS 3 Xrotation Yrotation Zrotation
							JOINT newVegas:Left_CapeB1
							{
								OFFSET 0.000000 -8.688499 0.000000
								CHANNELS 3 Xrotation Yrotation Zrotation
								End Site
								{
									OFFSET 0.000000 8.688499 0.000000
								}
							}
						}
						JOINT newVegas:Left_CapeA
						{
							OFFSET 5.115639 -8.608795 -10.395809
							CHANNELS 3 Xrotation Yrotation Zrotation
							JOINT newVegas:Left_CapeA1
							{
								OFFSET 0.000000 -8.688499 0.000000
								CHANNELS 3 Xrotation Yrotation Zrotation
								End Site
								{
									OFFSET 0.000000 8.688499 0.000000
								}
							}
						}
					}
				}
				JOINT newVegas:RightShoulder
				{
					OFFSET -15.263000 10.923401 -0.547700
					CHANNELS 3 Xrotation Yrotation Zrotation
					JOINT newVegas:RightArm
					{
						OFFSET -25.438599 -2.830597 -13.032500
						CHANNELS 3 Xrotation Yrotation Zrotation
						JOINT newVegas:RightForeArm
						{
							OFFSET -29.960503 0.000000 0.000000
							CHANNELS 3 Xrotation Yrotation Zrotation
							JOINT newVegas:RightHand
							{
								OFFSET -27.849251 0.000000 0.000000
								CHANNELS 3 Xrotation Yrotation Zrotation
								JOINT newVegas:RightHandThumb1
								{
									OFFSET -4.487587 -3.305161 6.305391
									CHANNELS 3 Xrotation Yrotation Zrotation
									JOINT newVegas:RightHandThumb2
									{
										OFFSET -5.480453 -3.164139 3.164143
										CHANNELS 3 Xrotation Yrotation Zrotation
										JOINT newVegas:RightHandThumb3
										{
											OFFSET -5.159721 -2.978973 2.978967
											CHANNELS 3 Xrotation Yrotation Zrotation
											End Site
											{
												OFFSET -2.494507 5.926697 1.738678
											}
										}
									}
								}
								JOINT newVegas:RightHandIndex1
								{
									OFFSET -18.578728 -0.527832 5.208049
									CHANNELS 3 Xrotation Yrotation Zrotation
									JOINT newVegas:RightHandIndex2
									{
										OFFSET -3.192009 0.000000 0.000000
										CHANNELS 3 Xrotation Yrotation Zrotation
										JOINT newVegas:RightHandIndex3
										{
											OFFSET -3.835129 0.000000 0.000000
											CHANNELS 3 Xrotation Yrotation Zrotation
											End Site
											{
												OFFSET 0.034599 3.816971 0.371180
											}
										}
									}
								}
								JOINT newVegas:RightHandMiddle1
								{
									OFFSET -18.476105 0.000000 0.000000
									CHANNELS 3 Xrotation Yrotation Zrotation
									JOINT newVegas:RightHandMiddle2
									{
										OFFSET -3.324875 0.000000 0.000000
										CHANNELS 3 Xrotation Yrotation Zrotation
										JOINT newVegas:RightHandMiddle3
										{
											OFFSET -4.596550 0.000000 0.000000
											CHANNELS 3 Xrotation Yrotation Zrotation
											End Site
											{
												OFFSET -0.057701 4.578827 0.399218
											}
										}
									}
								}
								JOINT newVegas:RightHandRing1
								{
									OFFSET -17.732719 0.121887 -4.201567
									CHANNELS 3 Xrotation Yrotation Zrotation
									JOINT newVegas:RightHandRing2
									{
										OFFSET -2.733170 0.000000 0.000000
										CHANNELS 3 Xrotation Yrotation Zrotation
										JOINT newVegas:RightHandRing3
										{
											OFFSET -3.178268 0.000000 0.000000
											CHANNELS 3 Xrotation Yrotation Zrotation
											End Site
											{
												OFFSET -0.119102 3.170624 0.185394
											}
										}
									}
								}
								JOINT newVegas:RightHandPinky1
								{
									OFFSET -15.989624 -0.606689 -7.535461
									CHANNELS 3 Xrotation Yrotation Zrotation
									JOINT newVegas:RightHandPinky2
									{
										OFFSET -2.538986 0.000000 0.000000
										CHANNELS 3 Xrotation Yrotation Zrotation
										JOINT newVegas:RightHandPinky3
										{
											OFFSET -2.593102 0.000000 0.000000
											CHANNELS 3 Xrotation Yrotation Zrotation
											End Site
											{
												OFFSET 0.150902 2.584198 0.152708
											}
										}
									}
								}
							}
							JOINT newVegas:Right_CapeC
							{
								OFFSET -15.715958 -8.608795 -6.935905
								CHANNELS 3 Xrotation Yrotation Zrotation
								JOINT newVegas:Right_CapeC1
								{
									OFFSET 0.000000 -8.688499 0.000000
									CHANNELS 3 Xrotation Yrotation Zrotation
									End Site
									{
										OFFSET 0.000000 8.688499 0.000000
									}
								}
							}
							JOINT newVegas:Right_Sleeve
							{
								OFFSET -0.267448 -0.649994 0.577675
								CHANNELS 3 Xrotation Yrotation Zrotation
								End Site
								{
									OFFSET 0.000000 15.991302 0.000000
								}
							}
						}
						JOINT newVegas:Right_CapeA
						{
							OFFSET -5.115540 -8.608795 -10.395824
							CHANNELS 3 Xrotation Yrotation Zrotation
							JOINT newVegas:Right_CapeA1
							{
								OFFSET 0.000000 -8.688499 0.000000
								CHANNELS 3 Xrotation Yrotation Zrotation
								End Site
								{
									OFFSET 0.000000 8.688499 0.000000
								}
							}
						}
						JOINT newVegas:Right_CapeB
						{
							OFFSET -26.118187 -8.608795 -7.079266
							CHANNELS 3 Xrotation Yrotation Zrotation
							JOINT newVegas:Right_CapeB1
							{
								OFFSET 0.000000 -8.688499 0.000000
								CHANNELS 3 Xrotation Yrotation Zrotation
								End Site
								{
									OFFSET 0.000000 8.688499 0.000000
								}
							}
						}
					}
				}
				JOINT newVegas:Left_Collar
				{
					OFFSET 18.625099 8.655502 8.828100
					CHANNELS 3 Xrotation Yrotation Zrotation
					JOINT newVegas:Left_Collar1
					{
						OFFSET 14.783401 10.540405 -1.259500
						CHANNELS 3 Xrotation Yrotation Zrotation
						End Site
						{
							OFFSET 0.000000 18.199875 0.000000
						}
					}
				}
				JOINT newVegas:Collar_Back
				{
					OFFSET 0.000000 15.630707 -20.132601
					CHANNELS 3 Xrotation Yrotation Zrotation
					End Site
					{
						OFFSET 0.000000 22.523010 0.000000
					}
				}
				JOINT newVegas:Left_Peck
				{
					OFFSET 17.239599 -5.132599 25.482599
					CHANNELS 3 Xrotation Yrotation Zrotation
					End Site
					{
						OFFSET 0.000000 22.523010 0.000000
					}
				}
				JOINT newVegas:Right_Peck
				{
					OFFSET -17.239599 -5.132202 25.482599
					CHANNELS 3 Xrotation Yrotation Zrotation
					End Site
					{
						OFFSET 0.000000 22.523010 0.000000
					}
				}
				JOINT newVegas:Right_Collar
				{
					OFFSET -18.625099 8.655792 8.828100
					CHANNELS 3 Xrotation Yrotation Zrotation
					JOINT newVegas:Right_Collar1
					{
						OFFSET -14.783401 10.539993 -1.259500
						CHANNELS 3 Xrotation Yrotation Zrotation
						End Site
						{
							OFFSET 0.000000 18.199631 0.000000
						}
					}
				}
			}
		}
		JOINT newVegas:Belly
		{
			OFFSET 0.000000 -6.540398 9.014299
			CHANNELS 3 Xrotation Yrotation Zrotation
			End Site
			{
				OFFSET 0.000000 11.566666 0.000000
			}
		}
	}
	JOINT newVegas:ElvisFacialAnim_Joint
	{
		OFFSET 1.000000 -95.330101 -8.825800
		CHANNELS 3 Xrotation Yrotation Zrotation
		End Site
		{
			OFFSET 0.000000 35.315800 0.000000
		}
	}
}
MOTION
Frames: 4
Frame Time: 0.016667
-23.244019 92.096069 -10.534843 12.062612 -131.793145 16.847614 0.000000 -0.000003 -0.000000 -112.736698 -22.941507 4.368176 81.667663 -6.527011 -32.346646 55.535455 -16.681733 -27.369273 -0.000000 -0.000001 0.000001 -0.000003 0.000001 0.000002 -26.112495 31.887005 1.891959 39.851753 18.702371 -5.752235 -11.128644 9.725027 10.744205 -0.000000 -0.000000 -0.000000 -0.000000 0.000000 -0.000001 17.494966 2.339331 -1.270221 8.584650 -0.768868 -1.067720 8.613858 -0.684831 -1.055483 1.315575 8.396244 0.899060 1.315581 8.396236 0.899064 0.000001 0.000001 -0.000001 1.315579 8.396208 0.899073 1.315654 8.396241 0.899051 0.000001 -0.000001 0.000000 0.000001 0.000001 -0.000000 -2.314307 -19.181502 9.645827 -51.327331 -47.749518 -40.680607 -278.688739 -149.109464 -272.924770 -39.791637 -8.511765 26.630677 -1.432201 -10.034946 7.701096 0.670870 15.323972 -3.924345 0.000002 0.000000 -0.000003 13.261844 -0.987888 16.342221 -0.165922 0.299370 -25.445552 0.000002 -0.000001 0.000000 8.548220 -0.380235 4.744687 0.222597 0.632716 -24.241706 0.000003 -0.000002 0.000002 6.164212 3.070762 -10.552886 0.029730 0.292416 -24.465415 0.000003 -0.000001 0.000002 -5.502650 7.612687 -8.221739 0.203293 0.257448 -40.928286 0.000000 0.000002 -0.000001 0.000001 -0.000001 -0.000001 0.000001 -0.000001 -0.000001 0.000001 -0.000001 -0.000002 -0.000001 0.000002 0.000002 -0.000000 0.000001 0.000002 -0.000001 0.000002 0.000002 -0.000001 0.000002 0.000001 -5.432979 22.644164 5.004592 -52.631676 7.939698 23.713484 118.664182 44.432686 -113.869267 -26.452916 -2.612705 -41.869466 0.242770 10.291369 -10.807286 1.082967 -16.586932 3.348091 -0.000001 -0.000001 -0.000004 19.476564 11.202811 -14.310237 -0.119534 -0.321870 17.065463 0.000000 0.000001 0.000001 4.333495 2.440271 -5.783601 0.339399 -0.451948 25.920228 0.000000 -0.000001 0.000005 -7.040576 -10.715440 4.750275 0.113487 -0.086656 25.185785 -0.000000 -0.000001 -0.000000 -19.515409 -20.289266 5.002047 0.220580 -0.082043 35.874571 0.000005 0.000000 -0.000004 -0.000001 0.000001 0.000003 -0.000000 -0.000000 0.000000 -0.000001 0.000001 0.000003 -0.000003 0.000001 -0.000002 -0.000003 0.000001 -0.000002 -0.000003 0.000001 -0.000002 -0.000003 0.000002 -0.000002 -0.000002 0.000001 -0.000001 -0.000002 0.000001 -0.000001 -0.000002 0.000001 -0.000001 -0.000002 0.000001 -0.000001 -0.000002 0.000001 -0.000001 -0.000002 0.000001 -0.000001 -0.000002 0.000001 -0.000001 -0.000000 -0.000002 -0.000000 0.000000 -0.000003 -0.000000 
-23.805359 92.558472 -11.015151 12.354264 -133.874126 17.347857 -0.000001 0.000001 0.000001 -114.471730 -22.979526 5.098165 80.593753 -6.856262 -32.708260 55.053459 -17.383801 -29.191720 -0.000001 0.000002 -0.000001 0.000001 0.000000 -0.000001 -24.749694 33.231879 1.760948 38.933820 19.217220 -5.637060 -10.940256 9.872483 10.600307 -0.000000 -0.000001 -0.000000 -0.000000 -0.000000 0.000000 17.874708 2.438776 -1.544374 8.889996 -0.672199 -1.209730 8.918212 -0.587179 -1.199350 1.430256 8.477310 0.859453 1.430259 8.477307 0.859451 -0.000000 -0.000001 0.000001 1.430194 8.477361 0.859450 1.430298 8.477229 0.859454 -0.000001 -0.000000 0.000001 -0.000000 -0.000001 0.000002 -2.111844 -18.783217 11.594752 -57.541345 -46.188744 -44.501944 -278.771821 -147.854307 -272.712433 -38.912421 -6.764452 26.414753 -1.404040 -9.882339 7.759704 0.819689 15.719832 -3.760173 0.000003 -0.000001 -0.000003 13.267458 -0.989203 15.858528 -0.165517 0.299790 -25.929324 -0.000000 0.000001 0.000000 8.542917 -0.376242 4.260960 0.223895 0.635154 -24.725437 -0.000001 -0.000002 0.000000 6.159684 3.076354 -11.036442 0.030917 0.295185 -24.949182 -0.000001 -0.000006 -0.000000 -5.511939 7.619115 -8.705116 0.205032 0.259162 -41.411994 -0.000004 -0.000000 0.000004 -0.000001 0.000004 0.000001 -0.000001 0.000004 0.000001 -0.000001 0.000005 0.000001 -0.000000 -0.000002 0.000001 -0.000000 -0.000003 0.000000 -0.000000 -0.000002 0.000001 0.000000 -0.000002 0.000000 -4.710943 23.091003 2.504146 -57.009096 7.316085 23.385407 120.495301 44.831412 -115.618328 -25.258992 -3.285250 -43.084977 0.246947 10.259852 -10.819154 1.096940 -16.624501 3.332873 0.000000 -0.000000 -0.000000 19.476655 11.202784 -14.266125 -0.119523 -0.321933 17.109798 0.000000 -0.000001 -0.000001 4.332935 2.440184 -5.739223 0.339597 -0.451882 25.964455 -0.000000 0.000000 0.000001 -7.040664 -10.715792 4.794449 0.113487 -0.087191 25.230029 -0.000000 -0.000001 0.000002 -19.515298 -20.289413 5.046183 0.220741 -0.082229 35.918811 -0.000003 -0.000004 -0.000000 -0.000001 0.000000 0.000002 0.000001 0.000001 0.000004 -0.000001 0.000001 0.000004 0.000001 -0.000003 0.000001 0.000001 -0.000003 0.000001 0.000001 -0.000003 0.000001 0.000001 -0.000002 0.000003 -0.000000 -0.000002 0.000001 -0.000000 -0.000002 0.000001 -0.000000 -0.000002 0.000001 -0.000000 -0.000002 0.000001 -0.000000 -0.000002 0.000001 -0.000000 -0.000002 0.000001 -0.000000 -0.000002 0.000001 -0.000000 0.000001 0.000000 -0.000001 0.000001 0.000001 
-24.339432 93.004662 -11.467415 12.678277 -135.752769 17.891692 0.000000 -0.000001 0.000000 -116.055583 -22.969066 5.682643 79.541146 -7.463553 -32.980330 54.177231 -18.000238 -31.198313 -0.000001 0.000001 -0.000001 -0.000001 -0.000004 -0.000004 -23.322974 34.489375 1.513239 38.118855 19.658172 -5.584912 -10.830558 9.972248 10.488152 -0.000000 0.000001 -0.000000 0.000001 -0.000001 0.000000 18.232070 2.528779 -1.812425 9.182358 -0.573633 -1.355683 9.209430 -0.487417 -1.347772 1.543244 8.549375 0.821217 1.543229 8.549368 0.821223 0.000001 0.000000 -0.000001 1.543241 8.549381 0.821213 1.543237 8.549379 0.821213 -0.000003 -0.000000 -0.000000 0.000001 0.000000 -0.000001 -1.708637 -18.296960 14.299380 -63.045180 -44.076645 -47.688647 -278.832692 -146.576829 -272.650141 -36.274219 -4.437924 25.502311 -1.375932 -9.729479 7.818293 0.965332 16.109922 -3.599193 0.000001 0.000001 -0.000001 13.273251 -0.990500 15.382327 -0.165115 0.300079 -26.405475 -0.000000 -0.000001 -0.000001 8.537679 -0.372285 3.784799 0.225203 0.637521 -25.201716 0.000001 -0.000003 0.000001 6.155174 3.082808 -11.512417 0.032063 0.297845 -25.425345 0.000001 0.000001 0.000000 -5.521697 7.626089 -9.180908 0.206751 0.260784 -41.888188 -0.000000 -0.000005 0.000001 0.000001 0.000001 0.000002 0.000001 0.000001 0.000002 0.000001 0.000002 0.000002 -0.000002 -0.000003 -0.000003 -0.000002 -0.000004 -0.000002 -0.000002 -0.000003 -0.000003 -0.000002 -0.000004 -0.000002 -3.961801 23.402316 0.011317 -60.996724 6.507637 22.843732 122.036192 45.207048 -117.083294 -24.195650 -3.692351 -44.353281 0.251439 10.226648 -10.831628 1.112197 -16.666073 3.315874 0.000002 -0.000001 0.000001 19.476749 11.202697 -14.217309 -0.119495 -0.321978 17.158793 -0.000001 -0.000001 -0.000001 4.332357 2.440076 -5.690254 0.339845 -0.451864 26.013421 0.000000 0.000001 0.000003 -7.040665 -10.716136 4.843298 0.113536 -0.087707 25.279025 0.000001 -0.000001 -0.000002 -19.514974 -20.289488 5.094956 0.220876 -0.082406 35.967783 -0.000001 -0.000000 0.000002 0.000001 -0.000001 -0.000001 0.000001 -0.000001 0.000001 0.000000 -0.000000 0.000001 0.000005 0.000002 -0.000000 0.000004 0.000002 0.000000 0.000005 0.000002 -0.000000 0.000004 0.000002 0.000000 0.000001 -0.000001 -0.000000 0.000001 -0.000001 -0.000000 0.000001 -0.000001 -0.000000 0.000001 -0.000001 -0.000000 0.000001 -0.000001 -0.000000 0.000001 -0.000001 -0.000000 0.000001 -0.000001 -0.000000 -0.000001 0.000002 -0.000000 0.000000 -0.000001 0.000000 
-24.995836 93.424614 -11.947340 12.998313 -137.426739 18.463118 0.000000 0.000000 0.000001 -117.528131 -22.776357 6.001945 78.692966 -7.962851 -33.073439 53.664660 -18.630577 -33.132028 -0.000001 -0.000001 0.000002 0.000004 0.000002 0.000001 -21.797550 35.638220 1.143121 37.616335 20.021723 -5.640152 -11.003684 10.025155 10.328858 -0.000000 0.000001 -0.000000 0.000000 0.000000 -0.000000 18.562612 2.628878 -2.064731 9.456794 -0.479585 -1.500251 9.482781 -0.391718 -1.495372 1.652861 8.613161 0.783823 1.652835 8.613159 0.783827 -0.000000 -0.000001 0.000002 1.652878 8.613204 0.783811 1.652925 8.613172 0.783811 -0.000001 0.000001 -0.000000 -0.000000 -0.000001 -0.000000 -1.353459 -17.783128 16.989126 -68.037700 -42.061838 -50.427317 -278.809251 -145.498165 -272.534930 -32.375288 -1.747016 24.022498 -1.348030 -9.576553 7.876789 1.107498 16.493346 -3.441755 0.000001 -0.000004 -0.000003 13.279100 -0.991790 14.914905 -0.164718 0.300413 -26.872898 0.000001 0.000002 -0.000001 8.532594 -0.368299 3.317335 0.226407 0.639835 -25.669038 -0.000000 -0.000002 -0.000001 6.150689 3.089448 -11.979661 0.033266 0.300432 -25.892745 -0.000001 -0.000001 -0.000000 -5.531900 7.633430 -9.647851 0.208425 0.262424 -42.355605 -0.000000 0.000000 -0.000003 0.000001 -0.000002 -0.000000 0.000001 -0.000002 -0.000000 0.000001 -0.000001 0.000000 0.000001 -0.000003 -0.000000 0.000001 -0.000003 0.000000 0.000001 -0.000003 -0.000000 0.000001 -0.000003 0.000001 -3.221330 23.818383 -2.377801 -64.631020 5.220855 21.642974 123.514983 45.341992 -118.648459 -23.655944 -3.889350 -45.553199 0.256034 10.192095 -10.844647 1.128764 -16.711238 3.297524 0.000001 0.000000 0.000003 19.476686 11.202580 -14.164235 -0.119395 -0.322010 17.211846 -0.000004 -0.000000 -0.000001 4.331631 2.439935 -5.637007 0.340110 -0.451846 26.066643 -0.000001 -0.000001 -0.000001 -7.040667 -10.716451 4.896212 0.113576 -0.088283 25.332159 -0.000002 0.000001 0.000001 -19.514624 -20.289500 5.147730 0.221082 -0.082601 36.020888 -0.000001 0.000002 -0.000001 -0.000003 -0.000001 -0.000002 0.000000 -0.000001 -0.000001 -0.000003 -0.000001 -0.000001 0.000001 0.000000 0.000001 0.000000 0.000000 0.000001 0.000001 0.000000 0.000001 0.000000 -0.000000 0.000001 -0.000000 -0.000000 -0.000000 -0.000000 -0.000000 -0.000000 -0.000000 -0.000000 -0.000000 -0.000000 -0.000000 -0.000000 -0.000000 -0.000000 -0.000000 -0.000000 -0.000000 -0.000000 -0.000000 -0.000000 -0.000000 0.000001 0.000002 -0.000001 0.000000 0.000000 0.000001 
